<?xml version="1.0" standalone="no"?>
<!DOCTYPE svg PUBLIC "-//W3C//DTD SVG 20010904//EN"
 "http://www.w3.org/TR/2001/REC-SVG-20010904/DTD/svg10.dtd">
<svg version="1.0" xmlns="http://www.w3.org/2000/svg"
 width="512.000000pt" height="512.000000pt" viewBox="0 0 512.000000 512.000000"
 preserveAspectRatio="xMidYMid meet">

<g transform="translate(0.000000,512.000000) scale(0.100000,-0.100000)"
fill="#000000" stroke="none">
<path d="M2330 5109 c-318 -31 -642 -124 -920 -264 -430 -216 -812 -574 -1059
-993 -27 -47 -28 -51 -13 -65 17 -15 727 -527 748 -540 7 -4 24 18 45 60 19
36 61 106 94 155 250 368 634 613 1080 688 168 29 423 25 578 -9 192 -41 366
-111 525 -209 82 -51 209 -149 246 -191 43 -47 51 -41 383 292 217 216 313
319 313 334 0 57 -340 320 -580 450 -252 136 -554 234 -855 279 -123 18 -457
26 -585 13z"/>
<path d="M4798 3018 c15 -15 17 -512 2 -678 -42 -466 -207 -908 -479 -1283
l-70 -97 73 -54 c121 -90 111 -87 151 -41 337 389 538 824 616 1335 25 166 40
770 20 808 -11 21 -17 22 -168 22 -122 0 -154 -3 -145 -12z"/>
</g>
</svg>
