<?xml version="1.0" standalone="no"?>
<!DOCTYPE svg PUBLIC "-//W3C//DTD SVG 20010904//EN">
<svg version="1.0" xmlns="http://www.w3.org/2000/svg"
 width="24" height="24" viewBox="0 0 512.000000 512.000000"
 preserveAspectRatio="xMidYMid meet">

<g transform="translate(0.000000,512.000000) scale(0.100000,-0.100000)"
fill="white" stroke="none">
<path d="M520 5106 c-115 -32 -215 -109 -274 -209 -70 -119 -66 38 -66 -2339
0 -1877 2 -2151 15 -2207 59 -248 306 -399 550 -336 64 17 36 2 2010 1083 627
343 1331 728 1564 855 362 198 433 240 482 288 180 178 179 464 -1 639 -49 47
-159 111 -791 456 -404 221 -1283 703 -1954 1070 -671 368 -1249 679 -1285
691 -74 26 -177 29 -250 9z m1704 -1062 c726 -398 1321 -728 1321 -732 0 -5
-134 -138 -298 -296 l-298 -289 -31 29 c-104 96 -2168 2086 -2168 2090 0 3 34
-14 76 -37 42 -23 671 -367 1398 -765z m-609 -371 c633 -609 1150 -1110 1150
-1113 0 -11 -2300 -2220 -2309 -2217 -36 12 -36 18 -34 2231 3 2163 4 2206 35
2206 5 0 526 -498 1158 -1107z m2610 -723 c204 -112 382 -211 397 -221 38 -28
78 -113 78 -169 0 -55 -41 -143 -78 -168 -14 -9 -210 -119 -436 -243 l-411
-225 -325 313 c-179 173 -325 318 -325 323 0 5 146 151 325 323 l325 314 40
-22 c22 -13 207 -114 410 -225z"/>
</g>
</svg>
