<?xml version="1.0" standalone="no"?>
<!DOCTYPE svg PUBLIC "-//W3C//DTD SVG 20010904//EN">
<svg version="1.0" xmlns="http://www.w3.org/2000/svg"
 width="24" height="24" viewBox="0 0 512.000000 512.000000"
 preserveAspectRatio="xMidYMid meet">

<g transform="translate(0.000000,512.000000) scale(0.100000,-0.100000)"
fill="white" stroke="none">
<path d="M2894 4900 c-141 -21 -289 -102 -383 -207 -62 -70 -126 -189 -146
-274 -10 -44 -15 -119 -15 -242 0 -156 2 -182 19 -215 25 -48 66 -87 113 -106
50 -21 324 -22 423 -1 233 49 435 245 489 475 22 92 22 396 1 448 -20 47 -50
79 -100 105 -35 19 -58 22 -195 24 -85 1 -178 -2 -206 -7z"/>
<path d="M1785 3826 c-568 -94 -1006 -521 -1122 -1094 -26 -124 -25 -547 0
-712 86 -551 346 -1043 745 -1404 105 -95 349 -279 412 -311 142 -72 326 -90
469 -46 41 12 128 49 193 82 182 91 201 90 398 -17 156 -85 236 -108 370 -107
121 0 225 28 321 86 90 54 313 232 422 336 216 207 462 557 482 686 10 58 -10
120 -52 166 -47 52 -56 56 -163 79 -111 24 -188 54 -263 104 -386 256 -431
808 -92 1124 102 96 219 154 368 182 124 23 191 99 191 215 0 72 -12 98 -93
189 -192 217 -447 366 -742 432 -103 24 -357 24 -458 1 -127 -29 -209 -58
-352 -128 l-139 -68 -134 64 c-161 76 -248 108 -352 130 -107 22 -309 28 -409
11z"/>
</g>
</svg>
