<?xml version="1.0" standalone="no"?>
<!DOCTYPE svg PUBLIC "-//W3C//DTD SVG 20010904//EN">
<svg version="1.0" xmlns="http://www.w3.org/2000/svg"
 width="24" height="24" viewBox="0 0 512.000000 512.000000"
 preserveAspectRatio="xMidYMid meet">

<g transform="translate(0.000000,512.000000) scale(0.100000,-0.100000)"
fill="var(--icon-color)" stroke="none">
<path d="M2554 4320 c-136 -29 -178 -66 -391 -349 l-183 -245 -104 0 -103 -1
-185 -92 c-201 -100 -247 -136 -285 -228 l-18 -45 -307 0 c-275 0 -313 -2
-369 -19 -172 -54 -282 -202 -282 -381 0 -98 11 -125 173 -441 153 -297 184
-339 296 -391 152 -71 336 -39 449 79 25 27 120 147 211 267 l165 220 107 0
107 1 169 84 c184 90 242 135 282 212 l24 48 332 3 333 3 67 32 c93 44 151
100 196 191 35 72 37 81 37 174 l0 98 -142 283 c-163 323 -188 365 -255 417
-85 68 -222 102 -324 80z m186 -180 c63 -32 96 -83 237 -363 134 -266 137
-273 137 -337 0 -102 -48 -176 -144 -219 -42 -19 -65 -21 -347 -21 l-301 0
-13 38 c-15 46 -154 327 -181 365 l-20 28 173 230 c95 127 187 242 206 256 71
54 173 64 253 23z m-802 -584 c45 -24 67 -55 146 -213 86 -172 94 -218 55
-283 -30 -49 -36 -53 -209 -137 -180 -88 -220 -95 -288 -50 -34 22 -52 49
-115 174 -88 173 -101 213 -86 266 18 66 53 95 222 178 170 84 217 95 275 65z
m-648 -371 c0 -18 166 -354 187 -377 9 -10 12 -22 7 -30 -25 -41 -336 -447
-360 -470 -91 -85 -264 -72 -338 26 -42 54 -285 532 -296 580 -19 85 25 196
95 242 61 40 91 43 403 44 260 0 302 -2 302 -15z"/>
<path d="M706 3984 c-132 -32 -260 -131 -323 -250 -35 -65 -63 -166 -63 -226
0 -50 35 -91 79 -91 48 0 73 30 83 104 17 130 85 227 196 281 l67 33 483 5
484 5 19 24 c26 32 24 77 -6 106 l-24 25 -468 -1 c-368 0 -481 -4 -527 -15z"/>
<path d="M3306 3979 c-34 -27 -37 -86 -5 -115 20 -18 48 -19 548 -24 l526 -5
67 -33 c77 -38 130 -92 167 -171 l26 -56 0 -1175 0 -1175 -26 -56 c-37 -79
-90 -133 -167 -171 l-67 -33 -1815 0 -1815 0 -67 33 c-77 38 -130 92 -167 171
l-26 56 -5 518 -5 519 -24 19 c-32 26 -77 24 -106 -6 l-25 -24 0 -498 c0 -550
2 -573 63 -687 41 -78 125 -162 203 -203 125 -66 6 -63 1974 -63 1557 0 1793
2 1849 15 184 44 332 192 376 376 22 96 22 2322 0 2418 -44 184 -192 332 -376
376 -53 12 -154 15 -570 15 -497 0 -507 0 -533 -21z"/>
<path d="M3385 3175 l-25 -24 0 -271 0 -271 25 -24 24 -25 351 0 351 0 24 25
25 24 0 271 0 271 -25 24 -24 25 -351 0 -351 0 -24 -25z m615 -295 l0 -160
-240 0 -240 0 0 160 0 160 240 0 240 0 0 -160z"/>
<path d="M985 1735 c-16 -15 -25 -36 -25 -55 0 -19 9 -40 25 -55 l24 -25 431
0 431 0 24 25 c16 15 25 36 25 55 0 19 -9 40 -25 55 l-24 25 -431 0 -431 0
-24 -25z"/>
<path d="M2265 1735 c-16 -15 -25 -36 -25 -55 0 -19 9 -40 25 -55 l24 -25 911
0 911 0 24 25 c16 15 25 36 25 55 0 19 -9 40 -25 55 l-24 25 -911 0 -911 0
-24 -25z"/>
</g>
</svg>
