<?xml version="1.0" standalone="no"?>
<!DOCTYPE svg PUBLIC "-//W3C//DTD SVG 20010904//EN">
<svg version="1.0" xmlns="http://www.w3.org/2000/svg"
 width="22" height="22" viewBox="0 0 512.000000 512.000000"
 preserveAspectRatio="xMidYMid meet">

<g transform="translate(0.000000,512.000000) scale(0.100000,-0.100000)"
fill="var(--icon-color)" stroke="none">
<path d="M129 5047 c-18 -12 -44 -38 -56 -56 l-23 -34 0 -579 c0 -556 1 -580
20 -617 11 -22 35 -48 53 -60 34 -21 42 -21 623 -21 570 0 590 1 622 20 18 11
41 34 52 52 19 32 20 52 20 622 0 581 0 589 -21 623 -12 18 -38 42 -60 53 -37
19 -61 20 -617 20 l-579 0 -34 -23z"/>
<path d="M1954 5056 c-38 -17 -71 -57 -85 -105 -7 -24 -9 -227 -7 -603 3 -557
3 -567 24 -595 11 -15 36 -38 54 -50 l33 -23 587 0 587 0 33 23 c18 12 43 35
54 50 21 28 21 38 24 605 l2 577 -22 44 c-13 25 -36 54 -51 65 -28 21 -41 21
-615 23 -476 2 -593 0 -618 -11z"/>
<path d="M3762 5053 c-19 -9 -44 -32 -58 -52 l-24 -36 0 -590 c0 -571 1 -591
20 -623 11 -18 34 -41 52 -52 32 -19 52 -20 623 -20 567 0 591 1 619 20 17 10
40 36 53 57 l23 38 0 581 0 581 -23 34 c-12 18 -38 44 -56 56 l-34 23 -581 0
c-518 0 -585 -2 -614 -17z"/>
<path d="M141 3238 c-25 -13 -54 -36 -65 -51 -21 -28 -21 -39 -21 -627 0 -588
0 -599 21 -627 11 -15 40 -38 65 -51 l44 -23 577 3 c567 3 577 3 605 24 15 11
38 36 50 54 l23 33 0 587 0 587 -22 33 c-13 18 -36 43 -51 54 -28 21 -38 21
-605 24 l-577 2 -44 -22z"/>
<path d="M1950 3238 c-33 -17 -51 -35 -67 -68 l-23 -44 0 -567 0 -566 23 -43
c16 -30 37 -51 67 -67 l43 -23 567 0 567 0 43 23 c30 16 51 37 67 67 l23 43 0
567 0 567 -23 43 c-16 30 -37 51 -67 67 l-43 23 -566 0 -567 0 -44 -22z"/>
<path d="M3780 3249 c-14 -6 -36 -20 -48 -32 -53 -49 -52 -33 -52 -660 l0
-584 23 -33 c12 -18 35 -43 50 -54 28 -21 38 -21 605 -24 l577 -2 44 22 c25
13 54 36 65 51 21 28 21 39 21 627 0 588 0 599 -21 627 -11 15 -40 38 -64 51
l-44 22 -566 -1 c-350 0 -574 -4 -590 -10z"/>
<path d="M119 1416 c-71 -49 -69 -27 -69 -674 l0 -579 23 -34 c12 -18 38 -44
56 -56 l34 -23 581 0 581 0 38 23 c21 13 47 36 57 53 19 28 20 52 20 619 0
571 -1 591 -20 623 -11 18 -34 41 -52 52 -32 19 -52 20 -623 20 l-590 0 -36
-24z"/>
<path d="M1955 1430 c-28 -11 -72 -60 -84 -93 -7 -19 -11 -218 -11 -591 l0
-562 23 -44 c12 -24 35 -53 50 -64 28 -21 39 -21 627 -21 588 0 599 0 627 21
15 11 38 40 51 65 l22 44 -2 577 c-3 567 -3 577 -24 605 -11 15 -36 38 -54 51
l-33 22 -586 -1 c-322 0 -595 -4 -606 -9z"/>
<path d="M3752 1420 c-18 -11 -41 -34 -52 -52 -19 -32 -20 -52 -20 -622 0
-581 0 -589 21 -623 12 -18 38 -42 60 -53 37 -19 61 -20 617 -20 l579 0 34 23
c18 12 44 38 56 56 l23 34 0 579 c0 556 -1 580 -20 617 -11 22 -35 48 -53 60
-34 21 -42 21 -623 21 -570 0 -590 -1 -622 -20z"/>
</g>
</svg>
