<?xml version="1.0" standalone="no"?>
<!DOCTYPE svg PUBLIC "-//W3C//DTD SVG 20010904//EN">
<svg version="1.0" xmlns="http://www.w3.org/2000/svg"
 width="512.000000pt" height="512.000000pt" viewBox="0 0 512.000000 512.000000"
 preserveAspectRatio="xMidYMid meet">

<g transform="translate(0.000000,512.000000) scale(0.100000,-0.100000)"
fill="var(--icon-color)" stroke="none">
<path d="M2412 5090 c-109 -29 -187 -74 -272 -160 -87 -86 -131 -163 -160
-276 -43 -169 -8 -351 95 -495 l35 -49 -693 0 c-762 0 -767 -1 -893 -62 -94
-45 -207 -158 -252 -252 -75 -155 -82 -339 -15 -372 10 -5 151 -11 314 -14
l295 -5 -213 -595 c-117 -327 -213 -596 -213 -597 0 -2 -56 -3 -125 -3 -189 0
-213 -21 -202 -174 31 -402 317 -740 717 -847 119 -32 347 -33 465 0 95 25
220 84 307 142 225 153 383 429 405 706 11 152 -13 173 -200 173 -110 0 -126
2 -132 18 -4 9 -96 267 -205 572 -109 305 -203 567 -209 583 l-11 27 480 0
480 0 0 -1200 0 -1200 -260 0 c-283 0 -305 -4 -328 -55 -8 -17 -12 -83 -12
-185 l0 -160 -260 0 c-283 0 -305 -4 -328 -55 -17 -36 -17 -454 0 -490 26 -58
-61 -55 1538 -55 1599 0 1512 -3 1538 55 17 36 17 454 0 490 -23 51 -45 55
-328 55 l-260 0 0 160 c0 102 -4 168 -12 185 -23 51 -45 55 -328 55 l-260 0 0
1200 0 1200 480 0 480 0 -11 -27 c-6 -16 -100 -278 -209 -583 -109 -305 -201
-563 -205 -572 -6 -16 -22 -18 -132 -18 -187 0 -211 -21 -200 -174 31 -402
317 -740 717 -847 119 -32 347 -33 465 0 95 25 220 84 307 142 225 153 383
429 405 706 11 152 -13 173 -202 173 -69 0 -125 1 -125 3 0 1 -96 270 -213
597 l-213 595 295 5 c163 3 304 9 314 14 67 33 60 217 -15 372 -45 93 -158
207 -250 252 -125 61 -132 62 -896 62 l-694 0 36 49 c72 98 115 231 116 357 0
79 -31 199 -72 277 -42 81 -164 203 -245 245 -132 69 -291 88 -431 52z m312
-218 c91 -42 149 -100 194 -190 35 -72 37 -81 37 -172 0 -91 -2 -100 -38 -172
-27 -55 -52 -89 -88 -120 -28 -24 -67 -57 -85 -75 l-34 -31 0 -1551 0 -1551
-150 0 -150 0 0 1551 0 1551 -34 31 c-18 18 -57 51 -85 75 -36 31 -61 65 -88
120 -36 72 -38 81 -38 171 0 87 3 102 32 163 40 85 97 147 172 186 78 42 122
52 213 48 61 -3 92 -11 142 -34z m-514 -1112 l0 -150 -895 0 c-1015 0 -916
-10 -870 88 43 93 146 178 242 201 21 5 372 9 781 10 l742 1 0 -150z m2282
118 c72 -33 151 -112 183 -180 46 -98 145 -88 -870 -88 l-895 0 0 150 0 151
763 -3 762 -3 57 -27z m-3226 -1101 l200 -562 -203 -3 c-112 -1 -294 -1 -406
0 l-203 3 200 562 c111 310 203 563 206 563 3 0 95 -253 206 -563z m3000 0
l200 -562 -203 -3 c-112 -1 -294 -1 -406 0 l-203 3 200 562 c111 310 203 563
206 563 3 0 95 -253 206 -563z m-2466 -783 c0 -9 -7 -42 -15 -73 -67 -261
-287 -475 -555 -542 -80 -20 -278 -17 -360 5 -215 59 -409 226 -499 430 -22
51 -51 152 -51 180 0 15 67 16 740 16 673 0 740 -1 740 -16z m3000 0 c0 -9 -7
-42 -15 -73 -67 -261 -287 -475 -555 -542 -80 -20 -278 -17 -360 5 -215 59
-409 226 -499 430 -22 51 -51 152 -51 180 0 15 67 16 740 16 673 0 740 -1 740
-16z m-1490 -1284 l0 -100 -750 0 -750 0 0 100 0 100 750 0 750 0 0 -100z
m600 -400 l0 -100 -1350 0 -1350 0 0 100 0 100 1350 0 1350 0 0 -100z"/>
</g>
</svg>
