<?xml version="1.0" standalone="no"?>
<!DOCTYPE svg PUBLIC "-//W3C//DTD SVG 20010904//EN"
 "http://www.w3.org/TR/2001/REC-SVG-20010904/DTD/svg10.dtd">
<svg version="1.0" xmlns="http://www.w3.org/2000/svg"
 width="512.000000pt" height="512.000000pt" viewBox="0 0 512.000000 512.000000"
 preserveAspectRatio="xMidYMid meet">

<g transform="translate(0.000000,512.000000) scale(0.100000,-0.100000)"
fill="currentColor" stroke="currentColor" stroke-width="90">
<path d="M2408 4287 c-153 -53 -261 -165 -309 -317 l-17 -55 -493 -5 c-347 -4
-500 -8 -514 -17 -13 -7 -113 -220 -295 -630 l-275 -618 2 -107 c1 -58 8 -134
17 -167 56 -217 230 -391 448 -448 80 -20 215 -20 295 0 172 45 326 170 401
327 50 106 62 163 62 297 l0 105 -236 532 c-130 292 -239 539 -242 549 -4 16
20 17 410 17 l415 0 22 -66 c25 -78 73 -154 130 -209 l41 -39 0 -1167 0 -1168
-227 -3 c-226 -3 -228 -3 -285 -31 -73 -36 -150 -119 -177 -192 -16 -43 -21
-78 -21 -158 1 -114 8 -132 61 -147 45 -13 1833 -13 1878 0 53 15 60 33 61
147 0 80 -5 115 -21 158 -27 73 -104 156 -177 192 -57 28 -59 28 -284 31
l-228 3 0 1166 0 1166 54 57 c56 58 106 145 125 218 l12 42 416 0 c391 0 415
-1 411 -17 -3 -10 -112 -257 -242 -549 l-236 -531 0 -106 c0 -135 12 -191 62
-297 53 -111 159 -220 266 -274 267 -134 571 -71 760 160 92 112 134 238 135
409 l1 110 -257 575 c-307 684 -294 656 -315 667 -9 4 -239 10 -511 13 l-493
5 -19 62 c-40 130 -157 253 -286 304 -89 34 -236 37 -325 6z m297 -169 c66
-35 118 -90 150 -161 24 -51 27 -68 23 -140 -2 -60 -9 -95 -26 -129 -98 -200
-363 -246 -519 -89 -63 64 -87 121 -91 218 -4 72 -1 89 23 140 40 89 112 154
205 184 14 5 61 7 105 5 62 -2 91 -8 130 -28z m-1379 -951 l201 -452 -204 -3
c-112 -1 -295 -1 -407 0 l-204 3 201 453 c111 248 204 452 207 452 3 0 95
-204 206 -453z m2881 1 l201 -453 -204 -3 c-112 -1 -295 -1 -407 0 l-204 3
201 452 c111 249 203 453 206 453 3 0 96 -204 207 -452z m-1647 177 c25 0 64
3 88 8 l42 7 0 -1130 0 -1130 -130 0 -130 0 0 1130 0 1130 43 -7 c23 -5 62 -8
87 -8z m-992 -869 c-8 -125 -75 -244 -180 -322 -143 -105 -343 -116 -497 -27
-90 52 -161 137 -197 233 -16 46 -35 169 -27 183 2 4 207 7 455 7 l451 0 -5
-74z m2884 14 c-10 -180 -142 -349 -314 -404 -81 -25 -201 -23 -284 4 -170 57
-304 235 -304 405 l0 55 453 -2 452 -3 -3 -55z m-1165 -1565 c21 -9 46 -23 56
-33 31 -28 57 -88 57 -132 l0 -40 -840 0 -840 0 0 40 c0 71 43 135 110 164 53
23 1403 23 1457 1z"/>
</g>
</svg>
