<?xml version="1.0" standalone="no"?>
<!DOCTYPE svg PUBLIC "-//W3C//DTD SVG 20010904//EN">
<svg version="1.0" xmlns="http://www.w3.org/2000/svg"
 width="24" height="24" viewBox="0 0 512.000000 512.000000"
 preserveAspectRatio="xMidYMid meet">

<g transform="translate(0.000000,512.000000) scale(0.100000,-0.100000)"
fill="var(--icon-color)" stroke="none">
<path d="M1173 4260 c-61 -37 -79 -108 -43 -167 40 -67 -34 -63 1169 -63
l1091 0 2 -572 3 -573 24 -34 c13 -18 42 -42 65 -52 38 -17 76 -19 564 -19
l524 0 149 -136 149 -135 0 -505 0 -505 -136 3 -136 3 -22 61 c-87 241 -353
391 -601 341 -44 -9 -108 -31 -142 -47 -119 -59 -232 -188 -270 -307 l-17 -53
-419 2 -419 3 -24 64 c-91 241 -352 388 -599 338 -44 -9 -108 -31 -142 -47
-119 -59 -232 -188 -270 -306 l-17 -54 -218 0 c-245 0 -274 -6 -308 -62 -26
-43 -25 -87 3 -129 38 -56 50 -59 299 -59 l226 0 13 -37 c57 -179 205 -314
392 -358 214 -51 442 40 566 226 22 33 48 85 58 115 l17 54 421 0 422 0 21
-57 c90 -246 346 -390 608 -342 156 28 308 145 377 290 21 42 37 84 37 93 0
14 21 16 203 16 190 0 204 2 242 23 26 14 48 37 63 67 l22 44 0 599 c0 567 -1
600 -19 635 -11 21 -93 106 -190 196 -95 87 -178 168 -186 180 -7 11 -70 176
-140 365 -69 189 -138 367 -152 395 -37 73 -135 166 -213 204 -92 43 -157 52
-382 52 l-198 0 0 59 c0 71 -14 117 -49 155 -54 59 10 56 -1238 56 -1121 0
-1149 -1 -1180 -20z m2910 -514 c54 -20 104 -62 127 -106 16 -32 230 -596 230
-607 0 -2 -180 -3 -400 -3 l-400 0 0 365 0 365 203 0 c142 -1 213 -5 240 -14z
m-1778 -2107 c25 -12 65 -43 89 -70 160 -178 49 -457 -190 -477 -196 -15 -354
174 -300 360 51 176 238 263 401 187z m1889 0 c25 -11 65 -42 89 -68 161 -172
53 -457 -183 -478 -191 -18 -349 156 -310 340 38 184 236 285 404 206z"/>
<path d="M634 3561 c-39 -24 -58 -70 -51 -122 6 -47 29 -76 74 -95 49 -21
1458 -20 1508 0 65 28 94 115 59 176 -38 63 2 60 -816 60 -709 0 -744 -1 -774
-19z"/>
<path d="M59 2867 c-80 -53 -79 -151 0 -204 l34 -23 1038 2 1039 3 31 31 c23
23 32 43 36 75 5 53 -11 86 -56 116 l-34 23 -1027 0 -1027 0 -34 -23z"/>
<path d="M423 2189 c-71 -21 -104 -109 -68 -179 31 -60 29 -60 540 -60 512 0
502 -1 539 60 36 63 4 154 -64 177 -43 14 -897 16 -947 2z"/>
</g>
</svg>
