<?xml version="1.0" standalone="no"?>
<!DOCTYPE svg PUBLIC "-//W3C//DTD SVG 20010904//EN"
 >
<svg version="1.0" xmlns="http://www.w3.org/2000/svg"
 width="512.000000pt" height="512.000000pt" viewBox="0 0 512.000000 512.000000"
 preserveAspectRatio="xMidYMid meet">

<g transform="translate(0.000000,512.000000) scale(0.100000,-0.100000)"
fill="var(--icon-color)" stroke="none">
<path d="M1423 4555 c-257 -49 -512 -182 -692 -363 -213 -214 -358 -521 -402
-848 -16 -126 -6 -392 20 -516 56 -261 178 -509 353 -715 50 -59 303 -284 909
-805 461 -398 856 -731 876 -740 49 -23 98 -22 148 1 60 28 1697 1442 1774
1532 181 213 304 461 363 733 19 86 22 132 22 311 1 180 -3 224 -22 311 -73
334 -236 619 -462 807 -100 84 -149 117 -258 171 -205 103 -381 141 -616 133
-174 -6 -246 -22 -392 -91 -155 -73 -281 -167 -411 -305 l-73 -76 -77 81
c-170 179 -369 305 -573 365 -96 28 -373 36 -487 14z m409 -370 c210 -44 385
-171 531 -385 78 -114 125 -150 197 -150 72 0 119 36 197 150 148 216 321 341
536 387 115 24 328 14 437 -22 156 -50 271 -117 378 -219 293 -279 399 -745
266 -1168 -56 -177 -174 -368 -310 -499 -38 -36 -379 -333 -759 -659 -379
-326 -702 -604 -717 -617 l-26 -25 -724 622 c-398 342 -752 650 -787 684 -369
355 -468 932 -238 1391 52 104 85 152 166 237 129 137 316 241 502 277 71 14
278 12 351 -4z"/>
</g>
</svg>
