<?xml version="1.0" standalone="no"?>
<!DOCTYPE svg PUBLIC "-//W3C//DTD SVG 20010904//EN">
<svg version="1.0" xmlns="http://www.w3.org/2000/svg"
 width="24" height="24" viewBox="0 0 512.000000 512.000000"
 preserveAspectRatio="xMidYMid meet">

<g transform="translate(0.000000,512.000000) scale(0.100000,-0.100000)"
fill="var(--icon-color)" stroke="none">
<path d="M1529 4384 c-771 -139 -1217 -944 -926 -1668 45 -113 109 -221 181
-309 47 -57 1128 -1110 1663 -1619 65 -62 75 -68 113 -68 38 0 48 6 114 68
757 726 1615 1561 1662 1619 263 320 342 774 203 1171 -174 496 -634 822
-1159 822 -288 0 -552 -92 -767 -267 l-53 -43 -53 43 c-115 94 -279 180 -417
220 -160 47 -402 60 -561 31z m2062 -208 c305 -64 566 -268 704 -551 83 -169
100 -245 100 -450 0 -146 -3 -182 -23 -255 -31 -115 -118 -289 -189 -377 -58
-73 -1606 -1573 -1623 -1573 -16 0 -1574 1511 -1618 1569 -23 31 -62 94 -86
141 -263 510 -57 1134 459 1385 144 71 247 97 403 103 289 11 517 -72 747
-273 85 -73 108 -70 219 29 171 152 348 236 558 266 85 12 256 5 349 -14z"/>
</g>
</svg>
