<?xml version="1.0" standalone="no"?>
<!DOCTYPE svg PUBLIC "-//W3C//DTD SVG 20010904//EN"
 "http://www.w3.org/TR/2001/REC-SVG-20010904/DTD/svg10.dtd">
<svg version="1.0" xmlns="http://www.w3.org/2000/svg"
 width="512.000000pt" height="512.000000pt" viewBox="0 0 512.000000 512.000000"
 preserveAspectRatio="xMidYMid meet">

<g transform="translate(0.000000,512.000000) scale(0.100000,-0.100000)"
fill="#000000" stroke="none">
<path d="M2406 4749 c-149 -22 -328 -92 -455 -179 -83 -55 -190 -158 -252
-239 -70 -92 -154 -267 -186 -386 -23 -89 -26 -118 -26 -265 0 -147 3 -176 26
-265 32 -119 116 -294 186 -386 144 -189 361 -333 596 -396 89 -23 118 -26
265 -26 146 0 176 3 263 26 111 30 256 95 346 157 83 55 190 158 252 239 70
92 154 267 186 386 23 89 26 118 26 265 0 146 -3 176 -26 265 -31 119 -115
292 -186 386 -235 310 -633 474 -1015 418z m284 -240 c181 -29 325 -104 460
-239 208 -208 289 -474 231 -756 -91 -441 -511 -734 -951 -663 -178 28 -333
109 -465 243 -232 234 -303 550 -196 863 130 379 526 616 921 552z"/>
<path d="M1545 2406 c-67 -21 -204 -97 -290 -160 -279 -206 -467 -500 -547
-851 -25 -114 -38 -577 -18 -678 24 -125 114 -248 220 -302 114 -58 34 -55
1660 -55 971 0 1510 4 1539 11 151 35 275 150 322 300 28 90 28 516 0 681 -22
123 -73 284 -126 388 -118 235 -323 453 -556 591 -109 65 -185 89 -283 89 -93
0 -135 -12 -291 -83 -199 -92 -384 -130 -615 -129 -232 1 -430 45 -640 144
-47 22 -105 47 -129 54 -54 17 -192 17 -246 0z m285 -276 c130 -59 261 -102
410 -132 98 -19 146 -23 320 -23 174 0 222 4 320 23 151 31 281 73 415 135
139 64 180 67 275 18 256 -133 466 -373 563 -646 54 -151 62 -219 62 -506 l0
-265 -27 -41 c-15 -22 -44 -51 -65 -64 l-38 -24 -1505 0 -1505 0 -38 24 c-21
13 -50 42 -65 64 -27 40 -27 41 -30 256 -5 330 20 476 118 677 105 217 296
415 500 519 110 56 140 55 290 -15z"/>
</g>
</svg>
