<?xml version="1.0" standalone="no"?>
<!DOCTYPE svg PUBLIC "-//W3C//DTD SVG 20010904//EN">
<svg version="1.0" xmlns="http://www.w3.org/2000/svg"
     width="24" height="24" viewBox="0 0 512.000000 512.000000"
     preserveAspectRatio="xMidYMid meet">

    <g transform="translate(0.000000,512.000000) scale(0.100000,-0.100000)"
       fill="var(--icon-color)" stroke="none">
        <path d="M4009 4810 c-333 -52 -578 -335 -579 -668 0 -177 66 -334 198 -474
l85 -89 8 -88 c8 -91 25 -172 41 -204 5 -10 9 -94 8 -187 -1 -147 2 -174 20
-223 42 -112 157 -199 282 -213 130 -15 273 68 335 194 27 56 28 61 30 242 1
142 5 195 18 230 9 25 20 89 25 143 9 107 6 101 100 197 181 186 240 442 159
688 -27 82 -56 115 -99 115 -36 0 -70 -31 -70 -64 0 -10 12 -54 26 -96 46
-137 34 -284 -33 -417 -14 -27 -61 -87 -105 -133 -43 -45 -87 -102 -98 -125
-10 -24 -23 -88 -29 -143 -6 -55 -18 -121 -27 -147 l-16 -48 -54 0 -54 0 0
185 0 186 105 124 c114 136 123 158 80 200 -24 25 -49 31 -80 19 -9 -4 -53
-51 -99 -105 l-84 -98 -69 82 c-98 117 -108 127 -141 127 -37 0 -72 -37 -72
-76 0 -24 23 -57 105 -155 l105 -124 0 -182 0 -183 -59 0 -58 0 -18 62 c-9 34
-21 103 -25 153 -10 114 -26 147 -122 245 -177 181 -216 401 -111 620 33 69
150 188 218 223 159 80 350 81 494 1 79 -44 141 -24 141 45 0 46 -14 60 -100
100 -119 55 -266 79 -381 61z m281 -1752 c0 -107 -18 -158 -68 -200 -66 -56
-152 -60 -224 -13 -60 40 -78 87 -78 205 l0 100 185 0 185 0 0 -92z"/>
        <path d="M769 4542 c-32 -27 -28 -62 16 -167 46 -109 68 -135 110 -135 37 0
75 35 75 68 0 34 -90 231 -111 242 -28 15 -65 12 -90 -8z"/>
        <path d="M1568 4543 c-23 -26 -98 -208 -98 -237 0 -56 86 -90 123 -48 24 27
97 202 97 234 0 15 -9 37 -20 48 -25 25 -81 26 -102 3z"/>
        <path d="M205 4195 c-51 -50 -26 -93 118 -204 64 -49 103 -56 137 -26 23 21
27 72 8 98 -7 9 -53 48 -102 86 -97 78 -123 85 -161 46z"/>
        <path d="M2062 4141 c-107 -85 -125 -114 -97 -157 20 -31 51 -47 78 -38 29 9
195 141 208 166 24 44 -16 108 -68 108 -12 0 -64 -34 -121 -79z"/>
        <path d="M1103 4160 c-253 -46 -474 -253 -538 -505 -19 -77 -19 -243 0 -320
28 -111 90 -221 176 -310 87 -91 99 -113 99 -189 0 -29 9 -88 21 -132 16 -63
21 -114 22 -254 2 -166 3 -178 28 -231 83 -177 275 -249 454 -170 65 29 139
108 165 178 25 65 39 281 23 342 -7 26 -4 49 14 101 12 37 26 110 31 163 l9
96 79 84 c140 149 193 267 201 452 6 135 -10 215 -68 332 -77 155 -223 281
-392 338 -88 29 -236 41 -324 25z m213 -151 c240 -43 424 -266 424 -514 0
-146 -53 -268 -167 -382 -95 -95 -113 -132 -123 -253 -5 -53 -17 -121 -28
-151 l-18 -54 -57 -3 -57 -3 0 183 0 183 105 125 c85 102 105 131 105 158 0
54 -51 87 -104 66 -8 -3 -50 -48 -93 -100 -42 -52 -80 -94 -84 -94 -3 0 -33
33 -66 73 -100 120 -109 127 -146 127 -48 0 -85 -48 -71 -92 3 -10 50 -71 105
-136 l99 -117 0 -187 0 -188 -54 0 -54 0 -16 48 c-10 26 -21 93 -26 149 -5 56
-16 118 -24 138 -9 21 -49 72 -90 114 -89 92 -130 155 -156 240 -22 71 -27
206 -9 281 32 138 147 280 279 343 112 54 209 67 326 46z m92 -1607 c-4 -80
-9 -107 -29 -141 -67 -119 -234 -126 -314 -12 -27 39 -30 50 -33 147 l-4 104
192 0 193 0 -5 -98z"/>
        <path d="M25 3505 c-14 -13 -25 -36 -25 -50 0 -14 11 -37 25 -50 23 -24 29
-25 154 -25 71 0 137 3 146 6 26 10 44 62 33 94 -14 41 -46 50 -184 50 -119 0
-126 -1 -149 -25z"/>
        <path d="M2101 3513 c-11 -10 -24 -32 -27 -50 -5 -26 -1 -37 19 -57 25 -25 30
-26 160 -26 158 0 181 9 181 75 0 65 -23 75 -179 75 -112 0 -136 -3 -154 -17z"/>
        <path d="M3143 2510 c-49 -29 -58 -54 -56 -157 5 -244 145 -437 385 -530 35
-14 94 -18 313 -22 l270 -6 3 -37 c7 -79 -35 -161 -99 -194 -30 -15 -774 -214
-801 -214 -11 0 -24 46 -52 178 -53 247 -71 285 -165 335 -119 65 -287 11
-337 -110 -8 -18 -41 -154 -73 -302 -67 -304 -98 -393 -185 -526 -76 -116
-176 -213 -324 -313 -67 -46 -129 -94 -138 -107 -40 -61 -21 -140 43 -182 25
-17 78 -18 883 -21 763 -2 860 -1 897 13 81 31 110 131 56 195 -14 17 -74 64
-132 103 -169 113 -306 259 -381 406 -25 51 -72 172 -68 176 2 2 184 51 406
109 403 106 439 118 499 163 69 53 123 178 123 285 l0 48 210 0 c237 0 285 7
390 58 195 95 319 308 308 530 -3 71 -5 76 -41 108 l-37 34 -932 0 c-906 0
-934 -1 -965 -20z m1827 -163 c0 -54 -29 -149 -63 -206 -41 -68 -95 -115 -177
-155 l-65 -31 -565 0 -565 0 -57 28 c-121 60 -219 183 -233 295 -3 26 -8 59
-10 75 l-4 27 869 0 870 0 0 -33z m-2069 -638 c9 -12 28 -78 43 -148 111 -515
147 -610 305 -811 67 -85 137 -148 251 -230 41 -29 79 -57 84 -62 6 -4 -333
-8 -752 -8 -419 0 -762 3 -762 8 1 4 38 32 83 62 151 101 302 271 384 435 54
105 89 224 144 479 56 262 71 300 122 308 34 6 80 -10 98 -33z"/>
        <path d="M2796 899 c-63 -17 -96 -77 -77 -139 16 -53 52 -80 107 -80 62 0 104
39 111 101 5 41 2 50 -23 78 -33 36 -77 51 -118 40z"/>
        <path d="M295 1883 c-73 -20 -100 -76 -92 -192 13 -196 102 -350 259 -452 116
-75 152 -82 431 -87 l247 -4 0 -81 c0 -98 10 -137 50 -200 36 -57 104 -102
176 -117 49 -10 66 -8 196 24 327 81 591 155 606 170 25 24 21 85 -7 107 -13
11 -31 19 -41 19 -10 0 -163 -39 -341 -86 -178 -47 -342 -86 -364 -87 -85 -1
-125 56 -125 177 l0 76 223 0 c190 0 235 3 301 20 107 27 169 63 252 145 112
110 166 237 168 397 1 98 -13 129 -75 160 -31 17 -85 18 -677 18 l-644 0 -29
-29 c-34 -35 -36 -59 -8 -95 l20 -26 629 0 c386 0 631 -4 635 -9 11 -18 -16
-146 -41 -198 -52 -107 -150 -188 -268 -219 -40 -11 -160 -14 -556 -14 -297 0
-523 5 -548 10 -179 42 -322 219 -322 400 l0 30 95 0 c110 0 135 14 135 73 0
60 -25 72 -154 74 -61 1 -120 -1 -131 -4z"/>
    </g>
</svg>
